ply
format ascii 1.0
element vertex 36
property float x
property float y
property float z
element edge 18
property int vertex1
property int vertex2
end_header
0.0 0.6000000238418579 0.0
0.5196152329444885 0.30000001192092896 0.0
0.5196152329444885 0.30000001192092896 1.2000000476837158
0.0 0.6000000238418579 1.2000000476837158
0.0 0.6000000238418579 0.0
0.0 0.6000000238418579 1.2000000476837158
0.5196152329444885 0.30000001192092896 1.2000000476837158
0.5196152329444885 0.30000001192092896 0.0
0.5196152329444885 0.30000001192092896 0.0
0.5196152329444885 -0.30000001192092896 0.0
0.5196152329444885 -0.30000001192092896 1.2000000476837158
0.5196152329444885 0.30000001192092896 1.2000000476837158
0.5196152329444885 -0.30000001192092896 1.2000000476837158
0.5196152329444885 -0.30000001192092896 0.0
0.5196152329444885 -0.30000001192092896 0.0
0.0 -0.6000000238418579 0.0
0.0 -0.6000000238418579 1.2000000476837158
0.5196152329444885 -0.30000001192092896 1.2000000476837158
0.0 -0.6000000238418579 1.2000000476837158
0.0 -0.6000000238418579 0.0
0.0 -0.6000000238418579 0.0
-0.5196152329444885 -0.30000001192092896 0.0
-0.5196152329444885 -0.30000001192092896 1.2000000476837158
0.0 -0.6000000238418579 1.2000000476837158
-0.5196152329444885 -0.30000001192092896 1.2000000476837158
-0.5196152329444885 -0.30000001192092896 0.0
-0.5196152329444885 -0.30000001192092896 0.0
-0.5196152329444885 0.30000001192092896 0.0
-0.5196152329444885 0.30000001192092896 1.2000000476837158
-0.5196152329444885 -0.30000001192092896 1.2000000476837158
-0.5196152329444885 0.30000001192092896 1.2000000476837158
-0.5196152329444885 0.30000001192092896 0.0
-0.5196152329444885 0.30000001192092896 0.0
0.0 0.6000000238418579 0.0
0.0 0.6000000238418579 1.2000000476837158
-0.5196152329444885 0.30000001192092896 1.2000000476837158
0 1
2 3
4 5
6 7
8 9
10 11
12 13
14 15
16 17
18 19
20 21
22 23
24 25
26 27
28 29
30 31
32 33
34 35
